{"asset":{"version":"2.0","generator":"Blockbench 4.9.3 glTF exporter"},"scenes":[{"nodes":[1,3,5,7,9,11,13,15],"name":"blockbench_export"}],"scene":0,"nodes":[{"name":"head"},{"translation":[0,0.5625,-0.25],"name":"head","mesh":0,"children":[0],"skin":0},{"name":"bill"},{"translation":[0,0.5625,-0.25],"name":"bill","mesh":1,"children":[2],"skin":1},{"name":"chin"},{"translation":[0,0.5625,-0.25],"name":"chin","mesh":2,"children":[4],"skin":2},{"name":"body"},{"rotation":[-0.7071067811865475,0,0,0.7071067811865476],"translation":[0,0.5,0],"name":"body","mesh":3,"children":[6],"skin":3},{"name":"left_wing"},{"translation":[-0.25,0.6875,0],"name":"left_wing","mesh":4,"children":[8],"skin":4},{"name":"right_wing"},{"translation":[0.25,0.6875,0],"name":"right_wing","mesh":5,"children":[10],"skin":5},{"name":"left_leg"},{"translation":[-0.0625,0.3125,0.0625],"name":"left_leg","mesh":6,"children":[12],"skin":6},{"name":"right_leg"},{"translation":[0.125,0.3125,0.0625],"name":"right_leg","mesh":7,"children":[14],"skin":7}],"bufferViews":[{"buffer":0,"byteOffset":0,"byteLength":288,"target":34962,"byteStride":12},{"buffer":0,"byteOffset":288,"byteLength":288,"target":34962,"byteStride":12},{"buffer":0,"byteOffset":576,"byteLength":192,"target":34962,"byteStride":8},{"buffer":0,"byteOffset":768,"byteLength":192,"target":34962,"byteStride":8},{"buffer":0,"byteOffset":960,"byteLength":384,"target":34962,"byteStride":16},{"buffer":0,"byteOffset":1344,"byteLength":72,"target":34963},{"buffer":0,"byteOffset":1416,"byteLength":288,"target":34962,"byteStride":12},{"buffer":0,"byteOffset":1704,"byteLength":288,"target":34962,"byteStride":12},{"buffer":0,"byteOffset":1992,"byteLength":192,"target":34962,"byteStride":8},{"buffer":0,"byteOffset":2184,"byteLength":192,"target":34962,"byteStride":8},{"buffer":0,"byteOffset":2376,"byteLength":384,"target":34962,"byteStride":16},{"buffer":0,"byteOffset":2760,"byteLength":72,"target":34963},{"buffer":0,"byteOffset":2832,"byteLength":288,"target":34962,"byteStride":12},{"buffer":0,"byteOffset":3120,"byteLength":288,"target":34962,"byteStride":12},{"buffer":0,"byteOffset":3408,"byteLength":192,"target":34962,"byteStride":8},{"buffer":0,"byteOffset":3600,"byteLength":192,"target":34962,"byteStride":8},{"buffer":0,"byteOffset":3792,"byteLength":384,"target":34962,"byteStride":16},{"buffer":0,"byteOffset":4176,"byteLength":72,"target":34963},{"buffer":0,"byteOffset":4248,"byteLength":288,"target":34962,"byteStride":12},{"buffer":0,"byteOffset":4536,"byteLength":288,"target":34962,"byteStride":12},{"buffer":0,"byteOffset":4824,"byteLength":192,"target":34962,"byteStride":8},{"buffer":0,"byteOffset":5016,"byteLength":192,"target":34962,"byteStride":8},{"buffer":0,"byteOffset":5208,"byteLength":384,"target":34962,"byteStride":16},{"buffer":0,"byteOffset":5592,"byteLength":72,"target":34963},{"buffer":0,"byteOffset":5664,"byteLength":288,"target":34962,"byteStride":12},{"buffer":0,"byteOffset":5952,"byteLength":288,"target":34962,"byteStride":12},{"buffer":0,"byteOffset":6240,"byteLength":192,"target":34962,"byteStride":8},{"buffer":0,"byteOffset":6432,"byteLength":192,"target":34962,"byteStride":8},{"buffer":0,"byteOffset":6624,"byteLength":384,"target":34962,"byteStride":16},{"buffer":0,"byteOffset":7008,"byteLength":72,"target":34963},{"buffer":0,"byteOffset":7080,"byteLength":288,"target":34962,"byteStride":12},{"buffer":0,"byteOffset":7368,"byteLength":288,"target":34962,"byteStride":12},{"buffer":0,"byteOffset":7656,"byteLength":192,"target":34962,"byteStride":8},{"buffer":0,"byteOffset":7848,"byteLength":192,"target":34962,"byteStride":8},{"buffer":0,"byteOffset":8040,"byteLength":384,"target":34962,"byteStride":16},{"buffer":0,"byteOffset":8424,"byteLength":72,"target":34963},{"buffer":0,"byteOffset":8496,"byteLength":288,"target":34962,"byteStride":12},{"buffer":0,"byteOffset":8784,"byteLength":288,"target":34962,"byteStride":12},{"buffer":0,"byteOffset":9072,"byteLength":192,"target":34962,"byteStride":8},{"buffer":0,"byteOffset":9264,"byteLength":192,"target":34962,"byteStride":8},{"buffer":0,"byteOffset":9456,"byteLength":384,"target":34962,"byteStride":16},{"buffer":0,"byteOffset":9840,"byteLength":72,"target":34963},{"buffer":0,"byteOffset":9912,"byteLength":288,"target":34962,"byteStride":12},{"buffer":0,"byteOffset":10200,"byteLength":288,"target":34962,"byteStride":12},{"buffer":0,"byteOffset":10488,"byteLength":192,"target":34962,"byteStride":8},{"buffer":0,"byteOffset":10680,"byteLength":192,"target":34962,"byteStride":8},{"buffer":0,"byteOffset":10872,"byteLength":384,"target":34962,"byteStride":16},{"buffer":0,"byteOffset":11256,"byteLength":72,"target":34963},{"buffer":0,"byteOffset":11328,"byteLength":64},{"buffer":0,"byteOffset":11392,"byteLength":64},{"buffer":0,"byteOffset":11456,"byteLength":64},{"buffer":0,"byteOffset":11520,"byteLength":64},{"buffer":0,"byteOffset":11584,"byteLength":64},{"buffer":0,"byteOffset":11648,"byteLength":64},{"buffer":0,"byteOffset":11712,"byteLength":64},{"buffer":0,"byteOffset":11776,"byteLength":64}],"buffers":[{"byteLength":11840,"uri":"data:application/octet-stream;base64,"}],"accessors":[{"bufferView":0,"componentType":5126,"count":24,"max":[0.125,0.375,0.0625],"min":[-0.125,0,-0.125],"type":"VEC3"},{"bufferView":1,"componentType":5126,"count":24,"max":[1,1,1],"min":[-1,-1,-1],"type":"VEC3"},{"bufferView":2,"componentType":5126,"count":24,"max":[0.218505859375,0.28076171875],"min":[0.000244140625,0.00048828125],"type":"VEC2"},{"bufferView":3,"componentType":5123,"count":24,"max":[0,0,0,0],"min":[0,0,0,0],"type":"VEC4"},{"bufferView":4,"componentType":5126,"count":24,"max":[0,1,0,0],"min":[0,1,0,0],"type":"VEC4"},{"bufferView":5,"componentType":5123,"count":36,"max":[23],"min":[0],"type":"SCALAR"},{"bufferView":6,"componentType":5126,"count":24,"max":[0.125,0.25,-0.125],"min":[-0.125,0.125,-0.25],"type":"VEC3"},{"bufferView":7,"componentType":5126,"count":24,"max":[1,1,1],"min":[-1,-1,-1],"type":"VEC3"},{"bufferView":8,"componentType":5126,"count":24,"max":[0.406005859375,0.12451171875],"min":[0.218994140625,0.00048828125],"type":"VEC2"},{"bufferView":9,"componentType":5123,"count":24,"max":[0,0,0,0],"min":[0,0,0,0],"type":"VEC4"},{"bufferView":10,"componentType":5126,"count":24,"max":[0,1,0,0],"min":[0,1,0,0],"type":"VEC4"},{"bufferView":11,"componentType":5123,"count":36,"max":[23],"min":[0],"type":"SCALAR"},{"bufferView":12,"componentType":5126,"count":24,"max":[0.0625,0.125,-0.0625],"min":[-0.0625,0,-0.1875],"type":"VEC3"},{"bufferView":13,"componentType":5126,"count":24,"max":[1,1,1],"min":[-1,-1,-1],"type":"VEC3"},{"bufferView":14,"componentType":5126,"count":24,"max":[0.343505859375,0.24951171875],"min":[0.218994140625,0.12548828125],"type":"VEC2"},{"bufferView":15,"componentType":5123,"count":24,"max":[0,0,0,0],"min":[0,0,0,0],"type":"VEC4"},{"bufferView":16,"componentType":5126,"count":24,"max":[0,1,0,0],"min":[0,1,0,0],"type":"VEC4"},{"bufferView":17,"componentType":5123,"count":36,"max":[23],"min":[0],"type":"SCALAR"},{"bufferView":18,"componentType":5126,"count":24,"max":[0.1875,0.25,0.1875],"min":[-0.1875,-0.25,-0.1875],"type":"VEC3"},{"bufferView":19,"componentType":5126,"count":24,"max":[1,1,1],"min":[-1,-1,-1],"type":"VEC3"},{"bufferView":20,"componentType":5126,"count":24,"max":[0.374755859375,0.71826171875],"min":[0.000244140625,0.28173828125],"type":"VEC2"},{"bufferView":21,"componentType":5123,"count":24,"max":[0,0,0,0],"min":[0,0,0,0],"type":"VEC4"},{"bufferView":22,"componentType":5126,"count":24,"max":[0,1,0,0],"min":[0,1,0,0],"type":"VEC4"},{"bufferView":23,"componentType":5123,"count":36,"max":[23],"min":[0],"type":"SCALAR"},{"bufferView":24,"componentType":5126,"count":24,"max":[0.0625,0,0.1875],"min":[0,-0.25,-0.1875],"type":"VEC3"},{"bufferView":25,"componentType":5126,"count":24,"max":[1,1,1],"min":[-1,-1,-1],"type":"VEC3"},{"bufferView":26,"componentType":5126,"count":24,"max":[0.593505859375,0.71826171875],"min":[0.375244140625,0.40673828125],"type":"VEC2"},{"bufferView":27,"componentType":5123,"count":24,"max":[0,0,0,0],"min":[0,0,0,0],"type":"VEC4"},{"bufferView":28,"componentType":5126,"count":24,"max":[0,1,0,0],"min":[0,1,0,0],"type":"VEC4"},{"bufferView":29,"componentType":5123,"count":36,"max":[23],"min":[0],"type":"SCALAR"},{"bufferView":30,"componentType":5126,"count":24,"max":[0,0,0.1875],"min":[-0.0625,-0.25,-0.1875],"type":"VEC3"},{"bufferView":31,"componentType":5126,"count":24,"max":[1,1,1],"min":[-1,-1,-1],"type":"VEC3"},{"bufferView":32,"componentType":5126,"count":24,"max":[0.593505859375,0.71826171875],"min":[0.375244140625,0.40673828125],"type":"VEC2"},{"bufferView":33,"componentType":5123,"count":24,"max":[0,0,0,0],"min":[0,0,0,0],"type":"VEC4"},{"bufferView":34,"componentType":5126,"count":24,"max":[0,1,0,0],"min":[0,1,0,0],"type":"VEC4"},{"bufferView":35,"componentType":5123,"count":36,"max":[23],"min":[0],"type":"SCALAR"},{"bufferView":36,"componentType":5126,"count":24,"max":[0.0625,0,0],"min":[-0.125,-0.3125,-0.1875],"type":"VEC3"},{"bufferView":37,"componentType":5126,"count":24,"max":[1,1,1],"min":[-1,-1,-1],"type":"VEC3"},{"bufferView":38,"componentType":5126,"count":24,"max":[0.593505859375,0.24951171875],"min":[0.406494140625,0.00048828125],"type":"VEC2"},{"bufferView":39,"componentType":5123,"count":24,"max":[0,0,0,0],"min":[0,0,0,0],"type":"VEC4"},{"bufferView":40,"componentType":5126,"count":24,"max":[0,1,0,0],"min":[0,1,0,0],"type":"VEC4"},{"bufferView":41,"componentType":5123,"count":36,"max":[23],"min":[0],"type":"SCALAR"},{"bufferView":42,"componentType":5126,"count":24,"max":[0.0625,0,0],"min":[-0.125,-0.3125,-0.1875],"type":"VEC3"},{"bufferView":43,"componentType":5126,"count":24,"max":[1,1,1],"min":[-1,-1,-1],"type":"VEC3"},{"bufferView":44,"componentType":5126,"count":24,"max":[0.593505859375,0.24951171875],"min":[0.406494140625,0.00048828125],"type":"VEC2"},{"bufferView":45,"componentType":5123,"count":24,"max":[0,0,0,0],"min":[0,0,0,0],"type":"VEC4"},{"bufferView":46,"componentType":5126,"count":24,"max":[0,1,0,0],"min":[0,1,0,0],"type":"VEC4"},{"bufferView":47,"componentType":5123,"count":36,"max":[23],"min":[0],"type":"SCALAR"},{"bufferView":48,"componentType":5126,"count":1,"max":[1,0,0,0,0,1,0,0,0,0,1,0,0,0,0,1],"min":[1,0,0,0,0,1,0,0,0,0,1,0,0,0,0,1],"type":"MAT4"},{"bufferView":49,"componentType":5126,"count":1,"max":[1,0,0,0,0,1,0,0,0,0,1,0,0,0,0,1],"min":[1,0,0,0,0,1,0,0,0,0,1,0,0,0,0,1],"type":"MAT4"},{"bufferView":50,"componentType":5126,"count":1,"max":[1,0,0,0,0,1,0,0,0,0,1,0,0,0,0,1],"min":[1,0,0,0,0,1,0,0,0,0,1,0,0,0,0,1],"type":"MAT4"},{"bufferView":51,"componentType":5126,"count":1,"max":[1,0,0,0,0,1,0,0,0,0,1,0,0,0,0,1],"min":[1,0,0,0,0,1,0,0,0,0,1,0,0,0,0,1],"type":"MAT4"},{"bufferView":52,"componentType":5126,"count":1,"max":[1,0,0,0,0,1,0,0,0,0,1,0,0,0,0,1],"min":[1,0,0,0,0,1,0,0,0,0,1,0,0,0,0,1],"type":"MAT4"},{"bufferView":53,"componentType":5126,"count":1,"max":[1,0,0,0,0,1,0,0,0,0,1,0,0,0,0,1],"min":[1,0,0,0,0,1,0,0,0,0,1,0,0,0,0,1],"type":"MAT4"},{"bufferView":54,"componentType":5126,"count":1,"max":[1,0,0,0,0,1,0,0,0,0,1,0,0,0,0,1],"min":[1,0,0,0,0,1,0,0,0,0,1,0,0,0,0,1],"type":"MAT4"},{"bufferView":55,"componentType":5126,"count":1,"max":[1,0,0,0,0,1,0,0,0,0,1,0,0,0,0,1],"min":[1,0,0,0,0,1,0,0,0,0,1,0,0,0,0,1],"type":"MAT4"}],"materials":[{"pbrMetallicRoughness":{"metallicFactor":0,"roughnessFactor":1,"baseColorTexture":{"index":0}},"alphaMode":"MASK","alphaCutoff":0.05,"doubleSided":true}],"textures":[{"sampler":0,"source":0}],"samplers":[{"magFilter":9728,"minFilter":9728,"wrapS":33071,"wrapT":33071}],"images":[{"mimeType":"image/png","uri":"data:image/png;base64,"}],"meshes":[{"primitives":[{"mode":4,"attributes":{"POSITION":0,"NORMAL":1,"TEXCOORD_0":2,"JOINTS_0":3,"WEIGHTS_0":4},"indices":5,"material":0}]},{"primitives":[{"mode":4,"attributes":{"POSITION":6,"NORMAL":7,"TEXCOORD_0":8,"JOINTS_0":9,"WEIGHTS_0":10},"indices":11,"material":0}]},{"primitives":[{"mode":4,"attributes":{"POSITION":12,"NORMAL":13,"TEXCOORD_0":14,"JOINTS_0":15,"WEIGHTS_0":16},"indices":17,"material":0}]},{"primitives":[{"mode":4,"attributes":{"POSITION":18,"NORMAL":19,"TEXCOORD_0":20,"JOINTS_0":21,"WEIGHTS_0":22},"indices":23,"material":0}]},{"primitives":[{"mode":4,"attributes":{"POSITION":24,"NORMAL":25,"TEXCOORD_0":26,"JOINTS_0":27,"WEIGHTS_0":28},"indices":29,"material":0}]},{"primitives":[{"mode":4,"attributes":{"POSITION":30,"NORMAL":31,"TEXCOORD_0":32,"JOINTS_0":33,"WEIGHTS_0":34},"indices":35,"material":0}]},{"primitives":[{"mode":4,"attributes":{"POSITION":36,"NORMAL":37,"TEXCOORD_0":38,"JOINTS_0":39,"WEIGHTS_0":40},"indices":41,"material":0}]},{"primitives":[{"mode":4,"attributes":{"POSITION":42,"NORMAL":43,"TEXCOORD_0":44,"JOINTS_0":45,"WEIGHTS_0":46},"indices":47,"material":0}]}],"skins":[{"inverseBindMatrices":48,"joints":[0],"skeleton":0},{"inverseBindMatrices":49,"joints":[2],"skeleton":2},{"inverseBindMatrices":50,"joints":[4],"skeleton":4},{"inverseBindMatrices":51,"joints":[6],"skeleton":6},{"inverseBindMatrices":52,"joints":[8],"skeleton":8},{"inverseBindMatrices":53,"joints":[10],"skeleton":10},{"inverseBindMatrices":54,"joints":[12],"skeleton":12},{"inverseBindMatrices":55,"joints":[14],"skeleton":14}]}